<?xml version="1.0"?>
<svg width="640" height="480" xmlns="http://www.w3.org/2000/svg" xmlns:svg="http://www.w3.org/2000/svg">
 <!-- Created with SVG-edit - https://github.com/SVG-Edit/svgedit-->
 <defs>
  <linearGradient id="svg_21" spreadMethod="pad" x1="0" x2="1" y1="1" y2="1">
   <stop offset="0" stop-color="#d92027" stop-opacity="0.996094"/>
   <stop offset="1" stop-color="#ffcd3c" stop-opacity="0.988281"/>
  </linearGradient>
  <linearGradient id="svg_40" spreadMethod="pad" x1="0" x2="1" y1="1" y2="1">
   <stop offset="0" stop-color="#ffcd3c" stop-opacity="0.992188"/>
   <stop offset="1" stop-color="#35d0ba" stop-opacity="0.980469"/>
  </linearGradient>
  <linearGradient id="svg_41" x1="0" x2="1" y1="0" y2="0">
   <stop offset="0" stop-color="#d92027" stop-opacity="0.996094"/>
   <stop offset="1" stop-color="#35d0ba" stop-opacity="0.996094"/>
  </linearGradient>
 </defs>
 <g class="layer">
  <title>Layer 1</title>
  <rect fill="none" height="5.5" id="svg_39" stroke="url(#svg_40)" stroke-linejoin="round" stroke-width="9" width="143.999997" x="353.000005" y="116.65"/>
  <line fill="none" id="svg_38" stroke="#d92027" stroke-linecap="round" stroke-width="15" x1="150" x2="150" y1="120" y2="180"/>
  <rect fill="none" height="5.5" id="svg_30" stroke="url(#svg_41)" stroke-linejoin="round" stroke-width="9" width="346.000021" x="151.500017" y="387.700012"/>
  <line fill="none" id="svg_34" stroke="#d92027" stroke-linecap="round" stroke-width="15" x1="150" x2="150" y1="390" y2="330"/>
  <line fill="none" id="svg_29" stroke="#35d0ba" stroke-linecap="round" stroke-width="15" x1="500" x2="500" y1="390" y2="330"/>
  <line fill="none" id="svg_28" stroke="#35d0ba" stroke-linecap="round" stroke-width="15" x1="500" x2="500" y1="120" y2="180"/>
  <line fill="none" id="svg_23" stroke="#ffcd3c" stroke-linecap="round" stroke-width="15" x1="350" x2="350" y1="120" y2="180"/>
  <rect fill="none" height="5.5" id="svg_20" stroke="url(#svg_21)" stroke-linejoin="round" stroke-width="9" width="142.000012" x="153.999999" y="117"/>
  <line fill="none" id="svg_15" stroke="#ffcd3c" stroke-linecap="round" stroke-width="15" x1="300" x2="300" y1="120" y2="180"/>
  <circle cx="150" cy="250" fill="#d92027" id="svg_2" r="80" stroke="#000000" stroke-width="10"/>
  <circle cx="325" cy="250" fill="#ffcd3c" id="svg_4" r="80" stroke="#000000" stroke-width="10"/>
  <circle cx="500" cy="250" fill="#35d0ba" id="svg_5" r="80" stroke="#000000" stroke-width="10"/>
  <text fill="#000000" font-family="Courier" font-size="80" id="svg_35" stroke="#d92027" stroke-width="0" text-anchor="middle" transform="matrix(1.77033 0 0 1.77033 -65.4662 -149.131)" x="121.427049" xml:space="preserve" y="255">F</text>
  <text fill="#000000" font-family="Courier" font-size="80" id="svg_36" stroke="#d92027" stroke-width="0" text-anchor="middle" transform="matrix(1.77033 0 0 1.77033 129.039 -194.366)" x="110.129734" xml:space="preserve" y="280">S</text>
  <text fill="#000000" font-family="Courier" font-size="80" id="svg_37" stroke="#d92027" stroke-width="0" text-anchor="middle" transform="matrix(1.77033 0 0 1.77033 268.029 -188.88)" x="130.464926" xml:space="preserve" y="275">M</text>
 </g>
</svg>